<?xml version="1.0" encoding="UTF-8" standalone="no"?>
<!-- Generator: Adobe Illustrator 19.0.0, SVG Export Plug-In . SVG Version: 6.00 Build 0)  -->

<svg
   version="1.1"
   id="Layer_1"
   x="0px"
   y="0px"
   viewBox="0 0 159.81677 384.99999"
   xml:space="preserve"
   sodipodi:docname="glass.svg"
   inkscape:version="1.1.2 (0a00cf5339, 2022-02-04, custom)"
   width="159.81677"
   height="385"
   xmlns:inkscape="http://www.inkscape.org/namespaces/inkscape"
   xmlns:sodipodi="http://sodipodi.sourceforge.net/DTD/sodipodi-0.dtd"
   xmlns="http://www.w3.org/2000/svg"
   xmlns:svg="http://www.w3.org/2000/svg"><defs
   id="defs63" /><sodipodi:namedview
   id="namedview61"
   pagecolor="#ffffff"
   bordercolor="#666666"
   borderopacity="1.0"
   inkscape:pageshadow="2"
   inkscape:pageopacity="0.0"
   inkscape:pagecheckerboard="0"
   showgrid="false"
   inkscape:zoom="1.5638855"
   inkscape:cx="235.63106"
   inkscape:cy="246.18171"
   inkscape:window-width="1920"
   inkscape:window-height="1011"
   inkscape:window-x="0"
   inkscape:window-y="0"
   inkscape:window-maximized="1"
   inkscape:current-layer="Layer_1"
   width="496.20001px"
   fit-margin-top="0"
   fit-margin-left="0"
   fit-margin-right="0"
   fit-margin-bottom="0" />

<g
   id="g8"
   transform="translate(-168.3,-55.599999)">
	<ellipse
   style="fill:#d9dbdb"
   cx="248.10001"
   cy="400.70001"
   rx="79.800003"
   ry="39.900002"
   id="ellipse4" />
	<rect
   x="168.3"
   y="95.5"
   style="fill:#d9dbdb"
   width="159.60001"
   height="305.89999"
   id="rect6" />
</g>

<rect
   x="6.8999939"
   y="181.60001"
   style="fill:#71c837"
   width="145.8"
   height="146.10001"
   id="rect12" /><rect
   x="6.8999939"
   y="181.60001"
   style="fill:#1fb622;fill-opacity:1"
   width="72.900002"
   height="146.10001"
   id="rect14" /><ellipse
   style="fill:#d9dbdb;stroke-width:1.0406"
   cx="80.016769"
   cy="183.64578"
   rx="79.800003"
   ry="43.205822"
   id="ellipse20-5" />

<rect
   x="6.8999939"
   y="40.400002"
   style="fill:#f4f4ef;stroke-width:0.704024"
   width="145.8"
   height="142.39999"
   id="rect10" /><ellipse
   style="fill:#1fb622;fill-opacity:1"
   cx="79.800003"
   cy="182.8"
   rx="72.900002"
   ry="36.5"
   id="ellipse16" />
<path
   style="fill:#71c837"
   d="m 152.7,182.8 c 0,20.1 -32.7,36.5 -72.900003,36.5 V 146.4 C 120.1,146.4 152.7,162.7 152.7,182.8 Z"
   id="path18" />
<ellipse
   style="fill:#d9dbdb"
   cx="79.800003"
   cy="39.900002"
   rx="79.800003"
   ry="39.900002"
   id="ellipse20" />
<ellipse
   style="fill:#f4f4ef"
   cx="79.800003"
   cy="39.900002"
   rx="73.099998"
   ry="33"
   id="ellipse22" />
<path
   style="fill:#efefe8"
   d="m 79.799997,72.800001 c -40.4,0 -73.1000001,-14.8 -73.1000001,-33 0,-18.2 32.7000001,-32.9999997 73.1000001,-32.9999997 z"
   id="path24" />
<ellipse
   style="fill:#71c837"
   cx="79.800003"
   cy="324.79999"
   rx="72.900002"
   ry="36.5"
   id="ellipse26" />
<path
   style="fill:#1fb622;fill-opacity:1"
   d="m 79.799997,361.2 c -40.3,0 -72.9000001,-16.3 -72.9000001,-36.5 0,-20.1 32.7000001,-36.5 72.9000001,-36.5 z"
   id="path28" />
<g
   id="g30"
   transform="translate(-168.3,-55.599999)">
</g>
<g
   id="g32"
   transform="translate(-168.3,-55.599999)">
</g>
<g
   id="g34"
   transform="translate(-168.3,-55.599999)">
</g>
<g
   id="g36"
   transform="translate(-168.3,-55.599999)">
</g>
<g
   id="g38"
   transform="translate(-168.3,-55.599999)">
</g>
<g
   id="g40"
   transform="translate(-168.3,-55.599999)">
</g>
<g
   id="g42"
   transform="translate(-168.3,-55.599999)">
</g>
<g
   id="g44"
   transform="translate(-168.3,-55.599999)">
</g>
<g
   id="g46"
   transform="translate(-168.3,-55.599999)">
</g>
<g
   id="g48"
   transform="translate(-168.3,-55.599999)">
</g>
<g
   id="g50"
   transform="translate(-168.3,-55.599999)">
</g>
<g
   id="g52"
   transform="translate(-168.3,-55.599999)">
</g>
<g
   id="g54"
   transform="translate(-168.3,-55.599999)">
</g>
<g
   id="g56"
   transform="translate(-168.3,-55.599999)">
</g>
<g
   id="g58"
   transform="translate(-168.3,-55.599999)">
</g>
</svg>
